<?xml version="1.0" standalone="no"?>
<!DOCTYPE svg PUBLIC "-//W3C//DTD SVG 20010904//EN"
 "http://www.w3.org/TR/2001/REC-SVG-20010904/DTD/svg10.dtd">
<svg version="1.0" xmlns="http://www.w3.org/2000/svg"
 width="512.000000pt" height="512.000000pt" viewBox="0 0 512.000000 512.000000"
 preserveAspectRatio="xMidYMid meet">
<metadata>
Created by potrace 1.11, written by Peter Selinger 2001-2013
</metadata>
<g transform="translate(0.000000,512.000000) scale(0.100000,-0.100000)"
fill="#000000" stroke="none">
<path d="M2290 4889 c-715 -82 -1364 -503 -1742 -1130 -504 -837 -429 -1907
187 -2674 314 -390 759 -675 1250 -800 223 -58 324 -70 575 -70 251 0 352 12
575 70 167 42 298 91 460 170 372 182 673 446 914 800 522 768 527 1795 14
2585 -380 583 -1015 974 -1705 1049 -113 13 -419 12 -528 0z m461 -1396 l-3
-533 339 0 338 0 -433 -432 -433 -433 -427 433 -428 432 338 0 338 0 0 535 0
535 187 -2 187 -3 -3 -532z m-942 -1280 c17 -128 41 -204 94 -288 105 -170
243 -282 429 -347 87 -30 102 -32 228 -32 125 0 142 2 229 32 253 85 445 285
506 527 14 54 25 115 25 135 0 73 -9 70 200 70 126 0 190 -4 192 -11 9 -26
-13 -193 -36 -287 -51 -198 -146 -363 -301 -517 -197 -198 -428 -309 -700
-336 -111 -11 -308 0 -370 21 -16 5 -63 19 -104 31 -266 75 -538 315 -682 602
-51 101 -98 281 -106 405 l-6 92 194 0 195 0 13 -97z"/>
</g>
</svg>
